<?xml version="1.0" encoding="UTF-8"?>
<svg width="245px" height="100px" viewBox="0 0 245 100" version="1.1" xmlns="http://www.w3.org/2000/svg" xmlns:xlink="http://www.w3.org/1999/xlink">
    <!-- Generator: Sketch 59.1 (86144) - https://sketch.com -->
    <title>logo/full/rc-en</title>
    <desc>Created with Sketch.</desc>
    <g id="Elements" stroke="none" stroke-width="1" fill="none" fill-rule="evenodd">
        <g id="CRC-Wordmark" transform="translate(-752.000000, -610.000000)">
            <g id="cross" transform="translate(752.000000, 438.000000)">
                <g id="logo/full/rc-en" transform="translate(0.000000, 172.000000)">
                    <g id="logo/full/rc-en-first">
                        <rect id="bg-logo" fill="#FFFFFF" fill-rule="nonzero" x="0" y="0" width="245" height="100"></rect>
                        <polygon id="rc" fill="#EE0000" fill-rule="nonzero" points="40 20 40 40 20 40 20 60 40 60 40 80 60 80 60 60 80 60 80 40 60 40 60 20"></polygon>
                        <g id="canadian" transform="translate(118.000000, 19.000000)" fill="#050500" fill-rule="nonzero">
                            <path d="M14.9,6.5 L11.6,6.5 C11.4,4.6 10.2,3.5 8.3,3.5 C5.9,3.5 4.4,5.6 4.4,8.9 C4.4,12.3 5.9,14.3 8.2,14.3 C10.1,14.3 11.3,13.2 11.6,11.2 L15,11.2 C14.7,15 12.1,17.2 8.2,17.2 C3.7,17.2 0.9,14 0.9,8.8 C0.9,3.6 3.7,0.4 8.2,0.4 C12.3,0.6 14.8,3.1 14.9,6.5 Z" id="Path"></path>
                            <path d="M26.8,9.7 L26.8,13.8 C26.8,15.2 26.9,16.2 27.1,16.9 L24.3,16.9 C24.2,16.4 24.1,15.9 24.1,15.4 L24.1,15.4 C23.2,16.6 22,17.2 20.4,17.2 C18,17.2 16.5,15.7 16.5,13.7 C16.5,11.8 17.6,10.6 20.9,10.1 C21.8,10 23,9.8 23.8,9.8 L23.8,9.4 C23.8,8 23,7.4 21.9,7.4 C20.7,7.4 20.1,8.1 20,9.1 L17,9.1 C17.1,6.9 18.7,5.2 21.9,5.2 C25.1,5.2 26.8,6.8 26.8,9.7 Z M23.8,11.8 C23.1,11.8 22.2,11.9 21.5,12 C20.2,12.2 19.7,12.7 19.7,13.6 C19.7,14.5 20.3,15 21.4,15 C22.1,15 22.7,14.8 23.2,14.3 C23.7,13.8 23.9,13.2 23.9,12.1 L23.9,11.8 L23.8,11.8 Z" id="Shape"></path>
                            <path d="M40.3,10 L40.3,17 L37.2,17 L37.2,10.3 C37.2,8.6 36.4,7.8 35.2,7.8 C33.9,7.8 33,8.8 33,10.9 L33,17 L29.9,17 L29.9,5.6 L32.8,5.6 L32.8,7 L32.8,7 C33.5,6 34.7,5.3 36.1,5.3 C38.6,5.3 40.3,6.9 40.3,10 Z" id="Path"></path>
                            <path d="M52.6,9.7 L52.6,13.8 C52.6,15.2 52.7,16.2 52.9,16.9 L50.1,16.9 C50,16.4 49.9,15.9 49.9,15.4 L49.9,15.4 C49,16.6 47.8,17.2 46.2,17.2 C43.8,17.2 42.3,15.7 42.3,13.7 C42.3,11.8 43.4,10.6 46.7,10.1 C47.6,10 48.8,9.8 49.6,9.8 L49.6,9.4 C49.6,8 48.8,7.4 47.7,7.4 C46.5,7.4 45.9,8.1 45.8,9.1 L42.7,9.1 C42.8,6.9 44.4,5.2 47.6,5.2 C50.9,5.2 52.6,6.8 52.6,9.7 Z M49.6,11.8 C48.9,11.8 48,11.9 47.3,12 C46,12.2 45.5,12.7 45.5,13.6 C45.5,14.5 46.1,15 47.2,15 C47.9,15 48.5,14.8 49,14.3 C49.5,13.8 49.7,13.2 49.7,12.1 L49.7,11.8 L49.6,11.8 Z" id="Shape"></path>
                            <path d="M62.8,17 L62.8,15.5 L62.8,15.5 C62.1,16.7 60.8,17.3 59.5,17.3 C56.6,17.3 54.8,14.9 54.8,11.3 C54.8,7.7 56.6,5.3 59.5,5.3 C60.8,5.3 62,5.9 62.7,7 L62.7,7 L62.7,1 L65.8,1 L65.8,17 L62.8,17 Z M58.1,11.3 C58.1,13.5 59.1,14.9 60.6,14.9 C62,14.9 63,13.6 63,11.3 C63,9 62,7.7 60.6,7.7 C59,7.7 58.1,9.1 58.1,11.3 Z" id="Shape"></path>
                            <path d="M69,3.7 L69,1 L72.1,1 L72.1,3.7 L69,3.7 Z M69,17 L69,5.6 L72.1,5.6 L72.1,17 L69,17 Z" id="Shape"></path>
                            <path d="M84.5,9.7 L84.5,13.8 C84.5,15.2 84.6,16.2 84.8,16.9 L82,16.9 C81.9,16.4 81.8,15.9 81.8,15.4 L81.8,15.4 C80.9,16.6 79.7,17.2 78.1,17.2 C75.7,17.2 74.2,15.7 74.2,13.7 C74.2,11.8 75.3,10.6 78.6,10.1 C79.5,10 80.7,9.8 81.5,9.8 L81.5,9.4 C81.5,8 80.7,7.4 79.6,7.4 C78.4,7.4 77.8,8.1 77.7,9.1 L74.6,9.1 C74.7,6.9 76.3,5.2 79.5,5.2 C82.9,5.2 84.5,6.8 84.5,9.7 Z M81.5,11.8 C80.8,11.8 79.9,11.9 79.2,12 C77.9,12.2 77.4,12.7 77.4,13.6 C77.4,14.5 78,15 79.1,15 C79.8,15 80.4,14.8 80.9,14.3 C81.4,13.8 81.6,13.2 81.6,12.1 L81.6,11.8 L81.5,11.8 Z" id="Shape"></path>
                            <path d="M98,10 L98,17 L94.9,17 L94.9,10.3 C94.9,8.6 94.1,7.8 92.9,7.8 C91.6,7.8 90.7,8.8 90.7,10.9 L90.7,17 L87.6,17 L87.6,5.6 L90.5,5.6 L90.5,7 L90.5,7 C91.2,6 92.4,5.3 93.8,5.3 C96.3,5.3 98,6.9 98,10 Z" id="Path"></path>
                        </g>
                        <g id="red-cross" transform="translate(120.000000, 43.000000)" fill="#050500" fill-rule="nonzero">
                            <path d="M5.9,1 C9.9,1 11.7,2.7 11.7,5.5 C11.7,7.5 10.6,8.9 8.8,9.4 L8.8,9.4 C9.9,9.8 10.5,10.5 11.2,12.5 L12.8,16.9 L9.2,16.9 L7.9,13.1 C7.3,11.4 6.7,10.8 5.1,10.8 L3.3,10.8 L3.3,17 L0,17 L0,1 L5.9,1 Z M3.3,8.3 L5.6,8.3 C7.6,8.3 8.4,7.4 8.4,5.9 C8.4,4.3 7.3,3.7 5.5,3.7 L3.3,3.7 L3.3,8.3 Z" id="Shape"></path>
                            <path d="M21.6,13.5 L24.8,13.5 C24.4,15.6 22.4,17.3 19.3,17.3 C15.7,17.3 13.6,14.8 13.6,11.1 C13.6,7.7 15.7,5.1 19.3,5.1 C21.9,5.1 23.9,6.6 24.6,8.9 C24.8,9.7 25,10.6 25,11.8 L16.8,11.8 C16.9,14.2 18,15 19.4,15 C20.6,15.1 21.5,14.5 21.6,13.5 Z M16.9,10 L21.9,10 C21.7,8.3 20.7,7.5 19.4,7.5 C18.1,7.4 17.1,8.2 16.9,10 Z" id="Shape"></path>
                            <path d="M34.9,17 L34.9,15.5 L34.9,15.5 C34.2,16.7 32.9,17.3 31.6,17.3 C28.7,17.3 26.9,14.9 26.9,11.3 C26.9,7.7 28.7,5.3 31.6,5.3 C32.9,5.3 34.1,5.9 34.8,7 L34.8,7 L34.8,1 L37.9,1 L37.9,17 L34.9,17 Z M30.1,11.3 C30.1,13.5 31.1,14.9 32.6,14.9 C34,14.9 35,13.6 35,11.3 C35,9 34,7.7 32.6,7.7 C31,7.7 30.1,9.1 30.1,11.3 Z" id="Shape"></path>
                            <path d="M59.4,6.5 L56.1,6.5 C55.9,4.6 54.7,3.5 52.8,3.5 C50.4,3.5 48.9,5.6 48.9,8.9 C48.9,12.3 50.4,14.3 52.7,14.3 C54.6,14.3 55.8,13.2 56.1,11.2 L59.5,11.2 C59.2,15 56.6,17.2 52.7,17.2 C48.2,17.2 45.4,14 45.4,8.8 C45.4,3.6 48.2,0.4 52.7,0.4 C56.7,0.6 59.2,3.1 59.4,6.5 Z" id="Path"></path>
                            <path d="M69,5.5 L69,8.2 C68.6,8.1 68.3,8.1 68,8.1 C66.1,8.1 65,9.3 65,11.6 L65,17 L61.9,17 L61.9,5.6 L64.8,5.6 L64.8,7.2 L64.8,7.2 C65.6,6 66.6,5.4 67.9,5.4 C68.3,5.4 68.7,5.4 69,5.5 Z" id="Path"></path>
                            <path d="M81.4,11.3 C81.4,15 79.1,17.4 75.6,17.4 C72,17.4 69.8,15 69.8,11.3 C69.8,7.6 72.1,5.2 75.6,5.2 C79.1,5.2 81.4,7.6 81.4,11.3 Z M73,11.3 C73,13.5 74,14.9 75.5,14.9 C77,14.9 78,13.5 78,11.3 C78,9.1 77,7.7 75.5,7.7 C74,7.7 73,9.1 73,11.3 Z" id="Shape"></path>
                            <path d="M92.8,9.1 L89.8,9.1 C89.8,7.9 89.1,7.4 88,7.4 C87,7.4 86.4,7.8 86.4,8.5 C86.4,9.3 87.1,9.5 88.9,10 C90.9,10.5 93.2,11.1 93.2,13.8 C93.2,15.9 91.3,17.4 88.2,17.4 C85,17.4 83.1,16.1 83.1,13.3 L86.3,13.3 C86.3,14.4 87,15.1 88.3,15.1 C89.4,15.1 90,14.7 90,14 C90,13 89.1,12.8 87.4,12.3 C85.5,11.8 83.4,11.4 83.4,8.7 C83.4,6.7 85.3,5.2 88.1,5.2 C91,5.2 92.8,6.5 92.8,9.1 Z" id="Path"></path>
                            <path d="M104.6,9.1 L101.6,9.1 C101.6,7.9 100.9,7.4 99.8,7.4 C98.8,7.4 98.2,7.8 98.2,8.5 C98.2,9.3 98.9,9.5 100.6,10 C102.6,10.5 104.9,11.1 104.9,13.8 C104.9,15.9 103,17.4 99.9,17.4 C96.7,17.4 94.8,16.1 94.8,13.3 L98,13.3 C98,14.4 98.7,15.1 100,15.1 C101.1,15.1 101.7,14.7 101.7,14 C101.7,13 100.8,12.8 99.1,12.3 C97.2,11.8 95.1,11.4 95.1,8.7 C95.1,6.7 97,5.2 99.8,5.2 C102.8,5.2 104.6,6.5 104.6,9.1 Z" id="Path"></path>
                        </g>
                    </g>
                </g>
            </g>
        </g>
    </g>
</svg>