<?xml version="1.0" standalone="no"?>
<!DOCTYPE svg PUBLIC "-//W3C//DTD SVG 20010904//EN"
 "http://www.w3.org/TR/2001/REC-SVG-20010904/DTD/svg10.dtd">
<svg version="1.0" xmlns="http://www.w3.org/2000/svg"
 width="83.000000pt" height="83.000000pt" viewBox="0 0 83.000000 83.000000"
 preserveAspectRatio="xMidYMid meet">
<metadata>
Created by potrace 1.15, written by Peter Selinger 2001-2017
</metadata>
<g transform="translate(0.000000,83.000000) scale(0.100000,-0.100000)"
fill="#000000" stroke="none">
<path d="M259 799 c-6 -13 -9 -61 -7 -125 l3 -104 -110 0 c-73 0 -115 -4 -123
-12 -13 -13 -18 -252 -6 -282 5 -13 26 -16 123 -16 l116 0 -3 -102 c-2 -55 -1
-112 3 -125 l6 -24 147 3 147 3 3 122 3 123 117 0 c79 0 122 4 130 12 17 17
17 269 0 286 -8 8 -52 12 -130 12 l-118 0 0 113 c0 75 -4 117 -12 125 -8 8
-55 12 -145 12 -124 0 -133 -1 -144 -21z"/>
</g>
</svg>
