<?xml version="1.0" encoding="UTF-8"?>
<svg width="268px" height="100px" viewBox="0 0 268 100" version="1.1" xmlns="http://www.w3.org/2000/svg" xmlns:xlink="http://www.w3.org/1999/xlink">
    <!-- Generator: Sketch 59.1 (86144) - https://sketch.com -->
    <title>logo/full/rc-fr</title>
    <desc>Created with Sketch.</desc>
    <g id="Elements" stroke="none" stroke-width="1" fill="none" fill-rule="evenodd">
        <g id="CRC-Wordmark" transform="translate(-1280.000000, -610.000000)">
            <g id="cross-copy" transform="translate(1280.000000, 438.000000)">
                <g id="logo/full/rc-fr" transform="translate(0.000000, 172.000000)">
                    <g id="logo/full/rc-fr-first">
                        <rect id="bg-logo" fill="#FFFFFF" fill-rule="nonzero" x="0" y="0" width="268" height="100"></rect>
                        <polygon id="rc" fill="#EE0000" fill-rule="nonzero" points="40 20 40 40 20 40 20 60 40 60 40 80 60 80 60 60 80 60 80 40 60 40 60 20"></polygon>
                        <g id="croix-rouge" transform="translate(118.000000, 19.000000)" fill="#050500" fill-rule="nonzero">
                            <g id="Group">
                                <path d="M14.9,6.5 L11.6,6.5 C11.4,4.6 10.2,3.5 8.3,3.5 C5.9,3.5 4.4,5.6 4.4,8.9 C4.4,12.3 5.9,14.3 8.2,14.3 C10.1,14.3 11.3,13.2 11.6,11.2 L15,11.2 C14.7,15 12.1,17.2 8.2,17.2 C3.7,17.2 0.9,14 0.9,8.8 C0.9,3.6 3.7,0.4 8.2,0.4 C12.3,0.6 14.8,3 14.9,6.5 Z" id="Path"></path>
                                <path d="M24.5,5.5 L24.5,8.2 C24.1,8.1 23.8,8.1 23.5,8.1 C21.6,8.1 20.5,9.3 20.5,11.6 L20.5,17 L17.4,17 L17.4,5.6 L20.3,5.6 L20.3,7.2 L20.3,7.2 C21.1,6 22.1,5.4 23.4,5.4 C23.8,5.4 24.2,5.4 24.5,5.5 Z" id="Path"></path>
                                <path d="M36.9,11.3 C36.9,15 34.6,17.4 31.1,17.4 C27.5,17.4 25.3,15 25.3,11.3 C25.3,7.6 27.6,5.2 31.1,5.2 C34.6,5.2 36.9,7.6 36.9,11.3 Z M28.5,11.3 C28.5,13.5 29.5,14.9 31,14.9 C32.5,14.9 33.5,13.5 33.5,11.3 C33.5,9.1 32.5,7.7 31,7.7 C29.5,7.7 28.5,9 28.5,11.3 Z" id="Shape"></path>
                                <path d="M39.2,3.7 L39.2,1 L42.3,1 L42.3,3.7 L39.2,3.7 Z M39.2,17 L39.2,5.6 L42.3,5.6 L42.3,17 L39.2,17 Z" id="Shape"></path>
                                <polygon id="Path" points="55.4 17 51.7 17 49.5 13.1 49.5 13.1 47.3 17 43.6 17 47.5 11.1 43.8 5.5 47.4 5.5 49.4 8.8 49.4 8.8 51.4 5.5 55 5.5 51.3 11.1"></polygon>
                                <polygon id="Path" points="56 12.3 56 9.8 61.8 9.8 61.8 12.3"></polygon>
                                <path d="M70.2,1 C74.2,1 76,2.7 76,5.5 C76,7.5 74.9,8.9 73.1,9.4 L73.1,9.4 C74.2,9.8 74.8,10.5 75.5,12.5 L77.1,16.9 L73.5,16.9 L72.2,13.1 C71.6,11.4 71,10.8 69.4,10.8 L67.6,10.8 L67.6,17 L64.3,17 L64.3,1 L70.2,1 Z M67.7,8.2 L70,8.2 C72,8.2 72.8,7.3 72.8,5.8 C72.8,4.2 71.7,3.6 69.9,3.6 L67.7,3.6 L67.7,8.2 L67.7,8.2 Z" id="Shape"></path>
                                <path d="M89.7,11.3 C89.7,15 87.4,17.4 83.9,17.4 C80.3,17.4 78.1,15 78.1,11.3 C78.1,7.6 80.4,5.2 83.9,5.2 C87.5,5.2 89.7,7.6 89.7,11.3 Z M81.3,11.3 C81.3,13.5 82.3,14.9 83.8,14.9 C85.3,14.9 86.3,13.5 86.3,11.3 C86.3,9.1 85.3,7.7 83.8,7.7 C82.3,7.7 81.3,9 81.3,11.3 Z" id="Shape"></path>
                                <path d="M91.9,12.6 L91.9,5.6 L95,5.6 L95,12.3 C95,14 95.8,14.8 97,14.8 C98.3,14.8 99.2,13.8 99.2,11.7 L99.2,5.6 L102.3,5.6 L102.3,17 L99.4,17 L99.4,15.6 L99.4,15.6 C98.7,16.6 97.5,17.3 96.1,17.3 C93.6,17.2 91.9,15.7 91.9,12.6 Z" id="Path"></path>
                                <path d="M112.7,7.1 L112.7,7.1 L112.7,5.6 L115.7,5.6 L115.7,16.3 C115.7,19.8 113.6,21.4 110.3,21.4 C107.2,21.4 105.4,20 105.2,17.8 L108.3,17.8 C108.4,18.7 109.1,19.2 110.3,19.2 C111.7,19.2 112.6,18.5 112.6,16.3 L112.6,15.3 L112.6,15.3 C111.7,16.5 110.8,17 109.4,17 C106.5,17 104.7,14.8 104.7,11.2 C104.7,7.6 106.5,5.4 109.4,5.4 C110.9,5.2 111.9,5.8 112.7,7.1 Z M108.1,11 C108.1,13 109,14.2 110.4,14.2 C111.9,14.2 112.8,12.9 112.8,11 C112.8,9.1 111.9,7.8 110.4,7.8 C109,7.8 108.1,9.1 108.1,11 Z" id="Shape"></path>
                                <path d="M126,13.5 L129.2,13.5 C128.7,15.6 126.8,17.3 123.7,17.3 C120.1,17.3 118,14.8 118,11.1 C118,7.7 120.1,5.1 123.7,5.1 C126.3,5.1 128.3,6.6 129,8.9 C129.2,9.7 129.4,10.6 129.4,11.8 L121.2,11.8 C121.3,14.2 122.4,15 123.8,15 C125,15.1 125.8,14.4 126,13.5 Z M121.2,9.9 L126.2,9.9 C126,8.2 125,7.4 123.7,7.4 C122.4,7.4 121.5,8.2 121.2,9.9 Z" id="Shape"></path>
                            </g>
                            <g id="Group" transform="translate(0.000000, 25.000000)">
                                <path d="M12.1,8.8 L8.8,8.8 C8.7,7.5 7.9,6.6 6.7,6.6 C5.2,6.6 4.2,8 4.2,10.2 C4.2,12.4 5.1,13.8 6.7,13.8 C7.9,13.8 8.7,12.9 8.8,11.4 L12.1,11.4 C11.9,14.3 9.8,16.2 6.7,16.2 C3.2,16.2 0.9,13.8 0.9,10.1 C0.9,6.4 3.2,4 6.7,4 C9.8,4.2 11.8,6.1 12.1,8.8 Z" id="Path"></path>
                                <path d="M23.7,8.7 L23.7,12.8 C23.7,14.2 23.8,15.2 24,15.9 L21.2,15.9 C21.1,15.4 21,14.9 21,14.4 L21,14.4 C20.1,15.6 18.9,16.2 17.3,16.2 C14.9,16.2 13.4,14.7 13.4,12.7 C13.4,10.8 14.5,9.6 17.8,9.1 C18.7,9 19.9,8.8 20.7,8.8 L20.7,8.4 C20.7,7 19.9,6.4 18.8,6.4 C17.6,6.4 17,7.1 16.9,8.1 L13.8,8.1 C13.9,5.9 15.5,4.2 18.7,4.2 C22,4.2 23.7,5.7 23.7,8.7 Z M20.6,10.7 C19.9,10.7 19,10.8 18.3,10.9 C17,11.1 16.5,11.6 16.5,12.5 C16.5,13.4 17.1,13.9 18.2,13.9 C18.9,13.9 19.5,13.7 20,13.2 C20.5,12.7 20.7,12.1 20.7,11 L20.7,10.7 L20.6,10.7 Z" id="Shape"></path>
                                <path d="M37.1,9 L37.1,16 L34,16 L34,9.3 C34,7.6 33.2,6.8 32,6.8 C30.7,6.8 29.8,7.8 29.8,9.9 L29.8,16 L26.7,16 L26.7,4.6 L29.6,4.6 L29.6,6 L29.6,6 C30.3,5 31.5,4.3 32.9,4.3 C35.5,4.3 37.1,5.9 37.1,9 Z" id="Path"></path>
                                <path d="M49.4,8.7 L49.4,12.8 C49.4,14.2 49.5,15.2 49.7,15.9 L46.9,15.9 C46.8,15.4 46.7,14.9 46.7,14.4 L46.7,14.4 C45.8,15.6 44.6,16.2 43,16.2 C40.6,16.2 39.1,14.7 39.1,12.7 C39.1,10.8 40.2,9.6 43.5,9.1 C44.4,9 45.6,8.8 46.4,8.8 L46.4,8.4 C46.4,7 45.6,6.4 44.5,6.4 C43.3,6.4 42.7,7.1 42.6,8.1 L39.5,8.1 C39.6,5.9 41.2,4.2 44.4,4.2 C47.8,4.2 49.4,5.7 49.4,8.7 Z M46.4,10.7 C45.7,10.7 44.8,10.8 44.1,10.9 C42.8,11.1 42.3,11.6 42.3,12.5 C42.3,13.4 42.9,13.9 44,13.9 C44.7,13.9 45.3,13.7 45.8,13.2 C46.3,12.7 46.5,12.1 46.5,11 L46.5,10.7 L46.4,10.7 Z" id="Shape"></path>
                                <path d="M59.7,16 L59.7,14.5 L59.7,14.5 C59,15.7 57.7,16.3 56.4,16.3 C53.5,16.3 51.7,13.9 51.7,10.3 C51.7,6.7 53.5,4.3 56.4,4.3 C57.7,4.3 58.9,4.9 59.6,6 L59.6,6 L59.6,0 L62.7,0 L62.7,16 L59.7,16 Z M54.9,10.3 C54.9,12.5 55.9,13.9 57.4,13.9 C58.8,13.9 59.8,12.6 59.8,10.3 C59.8,8 58.8,6.7 57.4,6.7 C55.9,6.7 54.9,8.1 54.9,10.3 Z" id="Shape"></path>
                                <path d="M65.8,2.7 L65.8,0 L68.9,0 L68.9,2.7 L65.8,2.7 Z M65.8,16 L65.8,4.6 L68.9,4.6 L68.9,16 L65.8,16 Z" id="Shape"></path>
                                <path d="M79.2,12.5 L82.4,12.5 C82,14.6 80,16.3 76.9,16.3 C73.3,16.3 71.2,13.8 71.2,10.1 C71.2,6.7 73.3,4.1 76.9,4.1 C79.5,4.1 81.5,5.6 82.2,7.9 C82.4,8.7 82.6,9.6 82.6,10.8 L74.4,10.8 C74.5,13.2 75.6,14 77,14 C78.2,14.1 79,13.4 79.2,12.5 Z M74.4,8.9 L79.4,8.9 C79.2,7.2 78.2,6.4 76.9,6.4 C75.7,6.4 74.7,7.2 74.4,8.9 Z" id="Shape"></path>
                                <path d="M95.4,9 L95.4,16 L92.3,16 L92.3,9.3 C92.3,7.6 91.5,6.8 90.3,6.8 C89,6.8 88.1,7.8 88.1,9.9 L88.1,16 L85,16 L85,4.6 L87.9,4.6 L87.9,6 L87.9,6 C88.6,5 89.8,4.3 91.2,4.3 C93.8,4.3 95.4,5.9 95.4,9 Z" id="Path"></path>
                                <path d="M108.9,9 L108.9,16 L105.8,16 L105.8,9.3 C105.8,7.6 105,6.8 103.8,6.8 C102.5,6.8 101.6,7.8 101.6,9.9 L101.6,16 L98.5,16 L98.5,4.6 L101.4,4.6 L101.4,6 L101.4,6 C102.1,5 103.3,4.3 104.7,4.3 C107.3,4.3 108.9,5.9 108.9,9 Z" id="Path"></path>
                                <path d="M119.1,12.5 L122.3,12.5 C121.9,14.6 119.9,16.3 116.8,16.3 C113.2,16.3 111.1,13.8 111.1,10.1 C111.1,6.7 113.2,4.1 116.8,4.1 C119.4,4.1 121.4,5.6 122.1,7.9 C122.3,8.7 122.5,9.6 122.5,10.8 L114.3,10.8 C114.4,13.2 115.5,14 116.9,14 C118.1,14.1 118.9,13.4 119.1,12.5 Z M114.3,8.9 L119.3,8.9 C119.1,7.2 118.1,6.4 116.8,6.4 C115.5,6.4 114.5,7.2 114.3,8.9 Z" id="Shape"></path>
                            </g>
                        </g>
                    </g>
                </g>
            </g>
        </g>
    </g>
</svg>